
        <svg xmlns="http://www.w3.org/2000/svg" xmlns:xlink="http://www.w3.org/1999/xlink" version="1.1" width="3162.0201430448105" height="544.8264067859619" viewBox="0 0 3162.0201430448105 544.8264067859619">
			
			<g transform="scale(8.101007152240548) translate(10, 10)">
				<defs id="SvgjsDefs1180"/><g id="SvgjsG1181" featureKey="symbolFeature-0" transform="matrix(0.7567567825317383,0,0,0.7567567825317383,0,-14.218702367834144)" fill="#000"><g xmlns="http://www.w3.org/2000/svg"><g><path d="M97.938,68.771h-6.316V20.81c0-1.115-0.905-2.021-2.021-2.021H10.399c-1.115,0-2.021,0.906-2.021,2.021v47.961H2.062    C0.924,68.771,0,69.694,0,70.832v2.084c0,0.103,0.008,0.204,0.022,0.306c0.527,3.521,3.348,7.447,7.159,7.922    c0.083,0.01,0.169,0.017,0.252,0.017l84.51,0.071h0.003c4.404,0,7.604-4.197,8.041-8.085c0.009-0.075,0.013-0.152,0.013-0.23    v-2.084C100,69.694,99.076,68.771,97.938,68.771z M12.42,22.831h75.16v45.939H59.985c-0.133,0-0.262,0.016-0.386,0.04H41.16    c-0.128-0.025-0.261-0.04-0.396-0.04H12.42V22.831z M91.948,77.107L7.586,77.036c-1.461-0.261-3.024-2.16-3.434-4.143h35.086    c0.702,1.246,2.017,2.085,3.519,2.085h15.233c1.502,0,2.816-0.839,3.52-2.085h34.35C95.538,74.926,93.854,77.107,91.948,77.107z     M38.84,37.498c-0.814-0.814-2.133-0.814-2.947,0l-8.689,8.689c-0.814,0.814-0.814,2.133,0,2.948l8.689,8.688    c0.407,0.407,0.94,0.611,1.474,0.611s1.066-0.204,1.474-0.611c0.814-0.813,0.814-2.133,0-2.947l-7.216-7.215l7.216-7.216    C39.654,39.631,39.654,38.312,38.84,37.498z M59.361,57.823c0.406,0.407,0.939,0.611,1.474,0.611c0.533,0,1.066-0.204,1.474-0.611    l8.688-8.688c0.814-0.814,0.814-2.133,0-2.948l-8.688-8.689c-0.814-0.814-2.134-0.814-2.947,0c-0.814,0.814-0.814,2.133,0,2.947    l7.215,7.216l-7.215,7.215C58.547,55.69,58.547,57.01,59.361,57.823z M41.793,62.275c0.299,0.148,0.617,0.22,0.931,0.22    c0.765,0,1.5-0.422,1.866-1.152l12.506-25.011c0.515-1.03,0.098-2.281-0.933-2.796c-1.029-0.513-2.281-0.098-2.797,0.932    L40.861,59.479C40.346,60.509,40.763,61.76,41.793,62.275z"/></g></g></g><g id="SvgjsG1182" featureKey="nameFeature-0" transform="matrix(1.23717200756073,0,0,1.23717200756073,96.0000001474824,-8.361461815223763)" fill="#000"><path d="M9.76 11.399999999999999 l1.16 0 l0 28.6 l-1.16 0 l0 -18.32 l-8.6 0 l0 18.32 l-1.16 0 l0 -28.6 l1.16 0 l0 9.04 l8.6 0 l0 -9.04 z M16.115 11.399999999999999 l0 28.6 l-1.16 0 l0 -28.6 l1.16 0 z M36.87 11.399999999999999 l1.16 0 l0 28.6 l-1.16 0 l0 -26 l-7.12 14.32 l-1.32 0 l-7.12 -14.32 l0 26 l-1.16 0 l0 -28.6 l1.16 0 l7.76 15.6 z M56.464999999999996 40 l-1.12 -4.52 l-10.96 0 l-1.12 4.52 l-1.2 0 l7.08 -28.6 l1.44 0 l7.08 28.6 l-1.2 0 z M44.665 34.28 l10.4 0 l-5.2 -20.88 z M74.82 11.399999999999999 l1.16 0 l0 28.6 l-1.16 0 l0 -5.16 c-0.2 -9.16 -4.88 -17.2 -11.96 -22.04 l0 27.2 l-1.16 0 l0 -28.6 l1.16 0 c5.72 3.64 10 9.28 11.96 15.96 l0 -15.96 z M86.015 40.56 c-2.36 0 -4.6 -1.12 -6 -3.04 l0.92 -0.68 c1.2 1.6 3.08 2.56 5.08 2.56 c3.4 0 6.2 -2.8 6.2 -6.24 c0 -3.56 -2.72 -6.16 -5.36 -8.72 c-2.56 -2.4 -5.16 -4.92 -5.16 -8.24 c0 -2.96 2.44 -5.4 5.4 -5.4 c1.72 0 3.36 0.84 4.4 2.24 l-0.96 0.68 c-0.8 -1.08 -2.08 -1.76 -3.44 -1.76 c-2.32 0 -4.24 1.92 -4.24 4.24 c0 2.8 2.32 5.04 4.8 7.4 c2.8 2.72 5.72 5.52 5.72 9.56 c0 4.08 -3.32 7.4 -7.36 7.4 z M107.17 11.399999999999999 l1.16 0 l0 28.6 l-1.16 0 l0 -18.32 l-8.6 0 l0 18.32 l-1.16 0 l0 -28.6 l1.16 0 l0 9.04 l8.6 0 l0 -9.04 z M118.405 40.56 c-3.32 0 -6.04 -2.72 -6.04 -6.08 l0 -23.08 l1.16 0 l0 23.08 c0 2.72 2.2 4.88 4.88 4.88 s4.88 -2.16 4.88 -4.88 l0 -23.08 l1.16 0 l0 23.08 c0 3.36 -2.72 6.08 -6.04 6.08 z M128.48 38.24 c0 -0.96 0.76 -1.76 1.72 -1.76 s1.76 0.8 1.76 1.76 s-0.8 1.76 -1.76 1.76 s-1.72 -0.8 -1.72 -1.76 z M137.155 21.68 l0 18.32 l-1.16 0 l0 -28.6 l5.76 0 l0 1.2 l-4.6 0 l0 7.84 l4.6 0 l0 1.24 l-4.6 0 z M159.67 12.559999999999999 c-7.24 0 -13.08 5.88 -13.08 13.12 s5.84 13.12 13.08 13.12 s13.16 -5.88 13.16 -13.12 s-5.92 -13.12 -13.16 -13.12 z M159.67 11.399999999999999 c7.92 0 14.32 6.4 14.32 14.28 s-6.4 14.32 -14.32 14.32 c-7.88 0 -14.28 -6.44 -14.28 -14.32 s6.4 -14.28 14.28 -14.28 z M179.18499999999997 38.8 l4.72 0 l0 1.2 l-5.88 0 l0 -28.6 l1.16 0 l0 27.4 z M189.09999999999997 11.399999999999999 l0 28.6 l-1.16 0 l0 -28.6 l1.16 0 z M207.41499999999996 12.559999999999999 c-7.24 0 -13.08 5.88 -13.08 13.12 s5.84 13.12 13.08 13.12 s13.16 -5.88 13.16 -13.12 s-5.92 -13.12 -13.16 -13.12 z M207.41499999999996 11.399999999999999 c7.92 0 14.32 6.4 14.32 14.28 s-6.4 14.32 -14.32 14.32 c-7.88 0 -14.28 -6.44 -14.28 -14.32 s6.4 -14.28 14.28 -14.28 z"/></g>
			</g>
		</svg>
	